# xmcd CD database file
#
# Track frame offsets:
#	150
#	17772
#	39127
#	56665
#
# Disc length: 1036 seconds
#
# Revision: 0
# Processed by: cddbd v1.5PL3 Copyright (c) Steve Scherf et al.
# Submitted via: CDex 1.50
#
DISCID=26040a04
DTITLE=南里侑香 - Fun! Fun!★ふぁんたじー
DYEAR=2003
DGENRE=Anime
TTITLE0=Fun! Fun!★ふぁんたじー
TTITLE1=ナナイロミライ
TTITLE2=Fun! Fun!★ふぁんたじー(カラオケ)
TTITLE3=ナナイロミライ(カラオケ)
EXTD=YEAR: 2003/10/8
EXTT0=
EXTT1=
EXTT2=
EXTT3=
PLAYORDER=
